<svg xmlns="http://www.w3.org/2000/svg" viewBox="0 0 64 64" fill="none" role="img" aria-label="Workforce Management System">
  <defs>
    <linearGradient id="wms-bg" x1="8" y1="4" x2="56" y2="60" gradientUnits="userSpaceOnUse">
      <stop stop-color="#0F4C81"/>
      <stop offset="1" stop-color="#1B7F79"/>
    </linearGradient>
    <linearGradient id="wms-accent" x1="20" y1="18" x2="44" y2="46" gradientUnits="userSpaceOnUse">
      <stop stop-color="#FFFFFF" stop-opacity="0.95"/>
      <stop offset="1" stop-color="#D1FAE5" stop-opacity="0.85"/>
    </linearGradient>
  </defs>
  <rect width="64" height="64" rx="14" fill="url(#wms-bg)"/>
  <rect x="18" y="22" width="12" height="26" rx="2" fill="url(#wms-accent)"/>
  <rect x="34" y="16" width="12" height="32" rx="2" fill="white" fill-opacity="0.9"/>
  <rect x="21" y="26" width="3" height="3" rx="0.5" fill="#0F4C81" fill-opacity="0.35"/>
  <rect x="27" y="26" width="3" height="3" rx="0.5" fill="#0F4C81" fill-opacity="0.35"/>
  <rect x="21" y="32" width="3" height="3" rx="0.5" fill="#0F4C81" fill-opacity="0.35"/>
  <rect x="27" y="32" width="3" height="3" rx="0.5" fill="#0F4C81" fill-opacity="0.35"/>
  <rect x="37" y="20" width="3" height="3" rx="0.5" fill="#0F4C81" fill-opacity="0.3"/>
  <rect x="43" y="20" width="3" height="3" rx="0.5" fill="#0F4C81" fill-opacity="0.3"/>
  <rect x="37" y="26" width="3" height="3" rx="0.5" fill="#0F4C81" fill-opacity="0.3"/>
  <rect x="43" y="26" width="3" height="3" rx="0.5" fill="#0F4C81" fill-opacity="0.3"/>
  <rect x="37" y="32" width="3" height="3" rx="0.5" fill="#0F4C81" fill-opacity="0.3"/>
  <rect x="43" y="32" width="3" height="3" rx="0.5" fill="#0F4C81" fill-opacity="0.3"/>
  <!-- Workforce dots -->
  <circle cx="16" cy="44" r="3" fill="white" fill-opacity="0.85"/>
  <circle cx="24" cy="46" r="3" fill="white" fill-opacity="0.7"/>
  <circle cx="32" cy="44" r="3" fill="white" fill-opacity="0.85"/>
  <circle cx="40" cy="46" r="3" fill="white" fill-opacity="0.7"/>
  <circle cx="48" cy="44" r="3" fill="white" fill-opacity="0.85"/>
</svg>
