<svg xmlns="http://www.w3.org/2000/svg" viewBox="0 0 64 64" fill="none" role="img" aria-label="Workforce Management System">
  <defs>
    <linearGradient id="wms-bg" x1="8" y1="4" x2="56" y2="60" gradientUnits="userSpaceOnUse">
      <stop stop-color="#2563EB"/>
      <stop offset="1" stop-color="#0891B2"/>
    </linearGradient>
    <linearGradient id="wms-accent" x1="16" y1="40" x2="48" y2="56" gradientUnits="userSpaceOnUse">
      <stop stop-color="#FFFFFF" stop-opacity="0.95"/>
      <stop offset="1" stop-color="#E0F2FE" stop-opacity="0.9"/>
    </linearGradient>
  </defs>
  <rect width="64" height="64" rx="14" fill="url(#wms-bg)"/>
  <circle cx="32" cy="21" r="6.5" fill="white" fill-opacity="0.95"/>
  <circle cx="19" cy="25" r="5" fill="white" fill-opacity="0.8"/>
  <circle cx="45" cy="25" r="5" fill="white" fill-opacity="0.8"/>
  <path d="M32 29.5c-8.5 0-15.5 4.2-15.5 9.5V44h31V39c0-5.3-7-9.5-15.5-9.5Z" fill="url(#wms-accent)"/>
  <path d="M19 32.5c-5.2 0-9.5 2.6-9.5 6.2V44h7.5v-3.5c0-2.2 2.2-3.8 5.5-4.2" fill="white" fill-opacity="0.75"/>
  <path d="M45 32.5c5.2 0 9.5 2.6 9.5 6.2V44h-7.5v-3.5c0-2.2-2.2-3.8-5.5-4.2" fill="white" fill-opacity="0.75"/>
  <path d="M14 48h36" stroke="white" stroke-opacity="0.35" stroke-width="2" stroke-linecap="round"/>
  <rect x="20" y="50" width="8" height="6" rx="1.5" fill="white" fill-opacity="0.9"/>
  <rect x="28" y="50" width="8" height="6" rx="1.5" fill="white" fill-opacity="0.7"/>
  <rect x="36" y="50" width="8" height="6" rx="1.5" fill="white" fill-opacity="0.5"/>
</svg>
